<svg width="119" height="64" viewBox="0 0 119 64" fill="none" xmlns="http://www.w3.org/2000/svg">
<g clip-path="url(#clip0_265_278)">
<path d="M7.10035 39.5977L6.37013 39.9062L4.09835 39.5977L2.75859 39.8249L1.6227 40.5149L1.46043 40.1084L0 41.7759V39.5977L0.16227 37.3049V33.5237L0.482649 31.333L0.16227 30.6785L0.811349 25.678L0.48681 26.0844L1.13797 20.0917L0.913288 19.2663L1.26903 17.8405L0.730214 18.0407L1.15669 17.0714L1.46043 12.9422L1.18582 12.7733L1.46043 9.20688L1.6435 8.642L1.67263 7.91037L1.46043 7.37676L1.92643 6.60344L0.850877 6.82022L2.10327 3.56853L0.48681 4.54195L2.43405 0.275146L5.36323 1.20897L8.929 0.883797L8.27784 5.44451L7.54555 18.0407L6.83614 21.2486L6.23699 27.8395L9.11416 14.937L9.57392 10.2324L10.5996 8.16676L12.0184 1.70714L12.2472 0.275146L12.7382 1.04638L14.5232 0.275146L17.8601 1.70714V4.37937L16.4475 7.32048L16.4704 11.5331L15.7568 10.074L15.1722 14.0344L12.838 21.68L12.2472 25.5154L11.155 28.8484L10.223 32.0834L9.42622 33.3486L8.929 34.1324L9.78404 33.8301L8.33401 39.5977H7.10035Z" fill="white"/>
<path d="M30.2196 1.70715L28.9714 1.37156L25.6428 2.26578L26.6975 1.37156L23.9389 1.29027L22.8988 1.20897L22.4702 0.273071L21.9813 1.02554L21.5382 1.70715L20.8163 4.65452L21.2324 6.82023L20.4855 6.01564L18.4779 12.6149L18.2137 15.283L16.8927 18.8494L18.4779 18.0386L16.3102 20.5399L16.0439 24.1355L14.6105 29.9719L13.3893 32.6816L13.2895 35.3601L12.2493 39.6102L15.2575 40.2356L16.8948 39.6102V41.2986L18.2595 39.6102L19.1145 36.8275L19.2934 34.7744L20.4501 29.186L20.6124 31.6561H22.3412L21.6672 33.901L22.0063 34.7973L21.4903 39.6102L23.2899 40.8921V39.6102L26.1296 40.2356L27.8979 39.6102L28.2474 33.9031L28.9693 31.6248L28.7821 25.2006L29.065 20.5357L28.7238 16.3335L30.049 18.0427L29.5435 12.6149L30.2134 5.35489L30.2196 1.70715ZM24.1345 15.0245L22.905 26.5805H21.9896L20.6915 27.8645L22.9175 18.0344L21.8273 18.4033L22.905 17.3007L24.7212 8.52111L24.2136 14.2825L25.235 14.0282L24.1345 15.0245Z" fill="white"/>
<path d="M35.8886 1.70714L34.7278 5.27358V14.0281L34.2992 12.0104L31.7258 25.5091V28.1918L30.9332 31.1099L31.3805 30.9453L30.5483 34.2199V36.1396L30.049 39.5831L29.8784 41.1089L31.0663 39.5831L32.223 39.8603L34.0184 39.5831L34.7777 38.7327L34.139 40.2564L35.8886 39.5831L36.3047 36.84V34.5388L37.2659 30.6931L37.6819 31.3684L37.7048 27.8728L38.1084 25.2757L37.6819 23.5039L38.306 23.9979L39.2214 18.124L38.7513 25.8197L38.9822 28.1396L38.8782 32.5899L39.2214 35.4539L38.8241 34.8452L38.6972 40.3919L39.9142 39.5977H42.1714L41.8073 40.5148L42.9183 39.5977L43.7504 36.7149L42.9183 37.5279L44.9862 32.4044L46.172 28.2501L46.6297 25.211L47.7801 22.6055L49.0595 18.124L47.8113 26.2324L46.9292 29.1131L47.8404 28.2585L46.8335 32.6107L45.7705 37.161L45.966 38.2616L45.6394 40.3377L47.7697 39.6039L49.5963 39.8499L51.0526 39.6039H51.5955L52.1531 35.9812L52.7626 34.1803L53.3701 29.9719L53.4471 27.5977L54.9033 18.2053V15.2871L55.4026 16.1417L55.7563 12.6149L57.2126 3.21L57.7139 0L56.0725 2.46795L55.205 3.62689L55.7376 1.70714H53.1101L51.9991 1.50912L50.1268 1.70714H48.3605L47.3578 4.38979L47.4868 5.20687L45.7517 12.1605L46.5506 11.3705L44.9383 15.4601L43.8336 19.8854L44.1748 14.4179L45.1006 13.2611L44.2289 13.5716L44.4765 9.61125C44.4765 9.61125 44.7573 5.08389 44.7532 5.15476C44.749 5.22563 43.7483 6.25951 43.7483 6.25951L45.2836 3.51641L44.9799 0.710788L41.3892 2.47837L41.9363 1.71756H38.8241L36.9642 1.32152L35.8886 1.70714Z" fill="white"/>
<path d="M70.0755 1.70715H65.7213L64.0175 1.43201L64.2005 2.04274L62.9232 1.70715H61.2297L59.9399 9.74467L58.9601 16.4315C58.9601 16.4315 60.3123 15.0287 60.0959 15.2725C59.8796 15.5164 58.492 19.9104 58.492 19.9104L57.3935 26.6055L56.2805 31.0474V33.826L55.0115 41.1214L57.2125 38.2783L56.9691 39.5977L58.8415 39.9854L60.2977 39.5977H61.7894L62.5175 34.8723V31.6123L63.4537 28.9297L64.2317 25.2319L64.394 26.3617H66.1166L65.7733 26.8974L68.9521 26.2241C69.9456 26.127 70.8829 25.7177 71.6302 25.0547C72.3775 24.3916 72.8965 23.5089 73.1129 22.5326L73.7037 18.7806L73.065 19.4205L74.2613 15.2142L75.1662 9.41325L75.5823 8.6295L75.5677 6.40543C75.5677 6.40543 76.1627 1.70715 70.0755 1.70715ZM68.8855 8.29808L68.4695 10.8223L68.7732 10.5784L68.2843 12.0584L67.8225 14.3387L67.6685 16.1438L67.2316 19.0328L67.6207 18.7681L67.086 19.8103C67.086 19.8103 66.9529 21.2131 65.6526 21.2423L65.3676 21.9239V21.2548H64.6291L65.014 18.7535L65.1929 19.0203L65.0306 17.0485L65.2282 17.357L65.7421 12.8338L66.2019 11.0037L66.4307 10.4555V9.47578L66.7303 7.51225L66.9737 6.06567L67.1984 6.82023H67.8037C67.8037 6.82023 69.1664 6.5701 68.8855 8.29808Z" fill="white"/>
<path d="M92.9225 23.5206L93.8794 23.5331C95.5437 23.6228 94.9071 25.1694 94.9071 25.1694L94.7636 26.072L94.1395 28.1168L94.8073 27.5081L94.204 29.726L93.6194 32.3044L93.532 34.1366L92.9537 37.9261L93.6194 37.4258L92.3711 40.0668L93.8753 39.5978C93.8753 39.5978 95.4127 39.2955 95.5604 39.2955C95.7081 39.2955 97.2392 39.5978 97.2392 39.5978V40.3919L98.7392 39.1725L98.1754 40.5462L99.1594 39.5894L99.6525 36.3961L99.5963 34.6535L100.191 32.9026L101.215 26.2846C102.588 21.0464 99.2718 20.9568 99.2718 20.9568C100.57 20.6441 101.007 20.3669 101.007 20.3669L101.631 19.4102L102.825 15.2038L103.732 9.40286L104.148 8.61912L104.134 6.39505C104.134 6.39505 104.737 1.69885 98.6498 1.69885H94.2955L92.5917 1.42371L92.7747 2.03444L91.4953 1.69885H89.804L88.5141 9.73637L87.5343 16.4232C87.5343 16.4232 88.8865 15.0204 88.6701 15.2642C88.4538 15.5081 87.0641 19.8979 87.0641 19.8979L85.9677 26.5931L84.8547 31.035V33.8135L83.5857 41.109L85.7763 38.2637L85.5329 39.5832L87.4053 39.9709L88.8615 39.5832H90.374L91.1021 34.8578V31.6123L92.0196 28.9297L92.9225 23.5206ZM96.1158 17.1652C95.8475 18.8119 93.7109 18.4159 93.7109 18.4159L93.611 17.0485L93.8191 17.357L94.3309 12.8422L94.7906 11.012L95.0195 10.4638V9.48416L95.3191 7.52063L95.5604 6.07404L95.7851 6.8286H96.3884C96.3884 6.8286 97.7489 6.58264 97.466 8.30646L97.0624 10.8307L97.3661 10.5868L96.8773 12.0667L96.4133 14.3471L96.2594 16.1522L96.1158 17.1652Z" fill="white"/>
<path d="M80.3755 0.883833L79.6557 1.70718L78.6156 5.5175L79.4685 5.19233L78.8215 7.06831L78.1787 11.2497V12.9901L76.8722 18.072L76.7931 20.2377L75.5574 28.2564L76.142 27.9083L75.2453 30.2762L74.9187 32.3961L75.1267 33.3549L74.8272 32.9985L73.5457 41.1173L75.0456 39.0454L74.9645 39.5915H77.074L78.0476 37.9469L77.4797 40.2648L78.8173 39.5915H80.2174L82.2749 26.2325V23.7478L83.363 19.1871L84.2763 15.2121L84.3761 12.6149L83.6272 13.282L84.7735 10.0365L85.7076 3.97086L86.0571 1.70718H82.4289L81.7798 2.74939C81.7798 2.74939 82.4164 0.685813 82.2957 0.837976C82.1751 0.990138 81.3741 1.70301 81.3741 1.70301H80.1987L80.3755 0.883833Z" fill="white"/>
<path d="M108.457 1.7072L107.04 11.4519L106.495 14.4284L105.398 19.6228C105.398 19.6228 106.129 18.8495 106.129 18.9724C106.129 19.0954 105.297 22.2387 105.297 22.2387L103.545 33.5967L104.169 32.9547L102.623 36.9151L103.098 36.5108L102.209 42.1387L104.853 38.5326C104.853 38.5326 104.215 40.2002 104.306 40.1481C104.398 40.096 104.945 39.5978 104.945 39.5978H111.244L111.943 37.801L111.488 40.5754L112.126 39.5978H113.223L113.922 36.5816L114.015 34.4847L108.962 34.5097L109.925 33.8156L110.452 31.9792L110.539 29.8948L109.965 30.3117L110.814 28.1439L111.523 23.6019L112.052 20.3565L112.339 21.43C112.339 21.43 114.652 21.6655 114.773 21.6655C114.893 21.6655 116 21.43 116 21.43L116.194 19.3893L116.462 18.4618L116.795 16.3169L111.802 16.3398L112.692 15.654L114.063 6.8307H118.201V4.79631L118.617 4.17098L119 1.71554H115.415L113.874 1.4404L110.807 1.71554L111.359 0.842163C111.359 0.842163 109.817 1.71554 109.655 1.71554L108.457 1.7072Z" fill="white"/>
<path d="M16.4973 57.5987C15.6652 55.8297 14.5848 54.5173 13.2561 53.6613L17.3732 49.7446C18.5756 50.659 19.6359 51.9645 20.5541 53.6613L16.4973 57.5987Z" fill="white"/>
<path d="M95.3563 57.5987C94.5242 55.8297 93.4445 54.5179 92.1172 53.6633L96.2343 49.7446C97.4339 50.659 98.4943 51.9652 99.4152 53.6633L95.3563 57.5987Z" fill="white"/>
<path d="M25.959 44.715H29.194L26.244 63.8541H23.009L25.959 44.715Z" fill="white"/>
<path d="M31.1121 44.715H34.3492L34.7444 52.2064V52.4648L34.8006 53.0902C34.8006 53.3778 34.8297 53.6363 34.8297 53.8656V54.074L36.2673 44.715H39.132L36.182 63.8541H32.9449L32.6308 55.5331C32.6306 55.4365 32.6208 55.3401 32.6017 55.2455C32.6017 54.9015 32.5725 54.3575 32.5725 54.0698V53.8114L31.0268 63.8541H28.1621L31.1121 44.715Z" fill="white"/>
<path d="M40.22 44.715H43.455L42.2526 57.9156C42.2817 57.7718 42.3087 57.6571 42.3087 57.6279L42.5168 56.6816L42.7456 55.7353C42.7748 55.6186 42.8309 55.4476 42.8601 55.2746L45.1734 44.715H48.1234L43.3115 63.8541H39.1133L40.22 44.715Z" fill="white"/>
<path d="M49.9854 44.715H54.3666L53.1933 63.8541H49.9562L50.3848 59.8374H49.1823L48.3231 63.8541H45.2878L49.9854 44.715ZM50.6719 57.284L51.3314 51.1141C51.3314 51.0287 51.3605 50.9057 51.3605 50.7702C51.4458 50.024 51.4167 50.1449 51.5311 49.1339L51.5893 48.6462L51.502 49.1631L51.2939 49.9677L51.1212 50.7702L51.0651 51.1141L49.7482 57.284H50.6719Z" fill="white"/>
<path d="M58.5753 56.023L57.9179 60.3273V60.4711C57.8938 60.5841 57.884 60.6996 57.8888 60.815C57.8888 61.2173 58.0615 61.4174 58.3756 61.4174C58.7771 61.4174 58.9477 61.1882 59.0621 60.4711V60.3273L59.5489 57.1423L59.6072 56.8275C59.637 56.6279 59.6564 56.4268 59.6654 56.2251C59.6654 55.7937 59.6072 55.6498 59.1495 55.2767L57.2127 53.555C56.3535 52.8088 56.0955 52.3502 56.0955 51.5748C56.1173 51.1229 56.1653 50.6726 56.2391 50.2262L56.5823 47.9604L56.6385 47.5581C57.0109 45.2924 58.0136 44.5732 60.8783 44.5732C62.1265 44.5732 62.9108 44.7462 63.4829 45.0902C63.7544 45.2612 63.9781 45.4982 64.1335 45.7792C64.2888 46.0602 64.3706 46.376 64.3713 46.6973C64.3646 46.9673 64.336 47.2364 64.286 47.5018L64.2568 47.7582L63.7139 51.3184H60.4664L60.9241 48.1918C60.967 48.0122 60.9962 47.8297 61.0115 47.6457C61.0191 47.5798 61.0118 47.513 60.99 47.4503C60.9683 47.3876 60.9327 47.3307 60.8858 47.2838C60.839 47.2369 60.7822 47.2012 60.7196 47.1794C60.6571 47.1576 60.5904 47.1502 60.5246 47.1579C60.1231 47.1579 59.9234 47.4164 59.836 47.9041L59.8069 48.1626L59.4075 50.6014C59.3731 50.7815 59.3536 50.9642 59.3492 51.1475C59.3539 51.3167 59.3976 51.4825 59.477 51.6318C59.5565 51.7812 59.6694 51.9101 59.8069 52.0084L61.6127 53.5863C62.7569 54.5618 62.9857 54.9349 62.9857 55.6519C62.9813 56.0084 62.943 56.3637 62.8713 56.7129L62.8151 57.0297L62.2992 60.5024C62.2748 60.5873 62.2553 60.6736 62.241 60.7608C62.0704 62.0511 61.9851 62.2804 61.698 62.741C61.0967 63.629 60.094 63.9917 58.2321 63.9917C55.6253 63.9917 54.5103 63.333 54.5103 61.753C54.5142 61.4835 54.5428 61.2149 54.5955 60.9505L54.6247 60.7421L55.3403 56.023H58.5753Z" fill="white"/>
<path d="M66.4807 44.715H69.7157L66.7658 63.8541H63.5308L66.4807 44.715Z" fill="white"/>
<path d="M70.9765 48.2752L71.0618 47.7874C71.4634 45.2861 72.3517 44.5732 75.129 44.5732C77.821 44.5732 78.7655 45.1756 78.7655 46.8119C78.7616 47.1678 78.7331 47.523 78.6802 47.875L78.622 48.3043L76.7683 60.4419L76.7101 60.815C76.4521 62.4513 76.1941 62.9682 75.4223 63.456C74.7982 63.8562 73.9889 64 72.5285 64C69.8947 64 68.9773 63.4831 68.9773 61.9156C68.9998 61.3484 69.0575 60.7831 69.15 60.2231L70.9765 48.2752ZM75.3869 48.1605C75.4245 48.0106 75.4433 47.8566 75.4431 47.702C75.4431 47.358 75.2725 47.1558 74.9293 47.1558C74.4986 47.1558 74.3842 47.3643 74.2407 48.1605L72.3517 60.5858L72.3226 60.7004C72.3226 60.7859 72.2934 60.8442 72.2934 60.9297C72.2889 60.9974 72.2994 61.0654 72.3242 61.1286C72.3489 61.1918 72.3873 61.2488 72.4366 61.2954C72.4859 61.342 72.5449 61.3771 72.6094 61.3982C72.6738 61.4193 72.7421 61.4259 72.8094 61.4174C73.2109 61.4174 73.3815 61.209 73.4668 60.6712L73.4959 60.5274L75.3869 48.1605Z" fill="white"/>
<path d="M80.9998 44.715H84.2348L84.6363 52.2043V52.4627L84.6945 53.0881C84.6945 53.3757 84.7216 53.6342 84.7216 53.8635V54.0719L86.155 44.7171H89.0176L86.0676 63.8562H82.8326L82.5164 55.5352C82.5163 55.4387 82.5072 55.3424 82.4893 55.2475C82.4893 54.9036 82.4602 54.3596 82.4602 54.0719V53.8135L80.9124 63.8562H78.0498L80.9998 44.715Z" fill="white"/>
</g>
<defs>
<clipPath id="clip0_265_278">
<rect width="119" height="64" fill="white"/>
</clipPath>
</defs>
</svg>